<?xml version="1.0" encoding="UTF-8"?>
<svg version="1.1" viewBox="0 0 1600 817" width="2882" height="1472" xmlns="http://www.w3.org/2000/svg">
<path transform="translate(0)" d="m0 0h1600v817h-1600z" fill="#1C1F24"/>
<path transform="translate(647,106)" d="m0 0 4 2 11 9 15 13 11 9 2 2-1 4h-4v34l6 1 3-10 5-12-1-6 9-4 5-1 2-10 2-3 6 1 2 1v6l13-1 5 11 12 30-1 4-3 1-7 16 1 5 5 4 4-1 9-16-1-6 5-2 9-1 2-5 4-6 4 1 3 2-1 7 12 1 4 21 3 15v7l-5 1-10 18 1 5 8 9 12 12 7 8 16 17 11 12 15 14 14 11 13 10 18 11 17 8 16 5 11 2h16l17-3 16-6 11-6 11-9 9-9 8-13 5-12 3-14v-17l-4-16-5-12-10-14-8-8-13-9-12-6-15-4-17-2h-10l-15 2-16 4-15 6-15 8-16 10-12 10-10 8-10 9-5 4-4-1-13-13 2-5 8-8-1-6-7-14h-6l2-14 7-32 1-1h11l-1-6 4-3h4l6 11 11 3 2 1v3h-2l8 16 1 4 8-4-1-7-4-12-5-1 5-17-1-17 5-1h4l4-8 2-1 27 12 7 4v3l-4 1 7 21h7l-1-12v-17h-3l2-4 7-8 11-12 6-7 5 2 7 6v-6l1-1h7l2 18 7 7 1 4-3 1v28l7 1 3-10 2-7-1-4 16-8 6 1 10 6 43-1 2 1 3 17 2 6 5 4 5-5h2l1-2 6 7-4 6 2 4 4 3-1 23-1 4-6-2-8 9-7 9 1 1 31 1 1-6 4 2 12 18 18 1v11l-9 1 11 18-2 5-13 18-9 12-10 13h-2v-5l-27 1 2 5 11 11 5-1v13l-1 10-9 9-1 2h-2l-2 4-5 5-8 32-1 2h-11l-17-1 4 9-1 4-5 3-3-1-3-5-4 2-4 3-12-3-8-4v-4l-8-21v-3l-4 1-1 31 6 1-2 4-7 7-9 7-1 21-1 1h-11l-2-10-13 10-4-1-8-7-12-11-15-14-5-5v-4h4l-1-34-4-1-2 6-5 11 2 2v3l-13 4h-3l-2 6-5 7-6-4v-4h-12l-8-16-10-21-1-7 5-1 6-16-1-5-5 1-10 16 1 7-1 1-16 1-8 10-4-1-3-3 1-6-9-1-2-5-4-31v-9l5-1 12-18-1-4-13-13-7-8-6-7-7-6-7-8-17-17-11-9-9-8-14-10-15-9-17-8-16-5-20-2-17 1-16 4-12 5-12 7-13 11-8 10-7 12-5 16-1 6v18l3 14 5 12 10 14 9 9 13 9 18 8 17 4h28l15-3 18-6 17-8 22-14 13-10 11-9 13-12 4 1 15 14-1 4-15 15 2 6 5 11v2l7-1v7l-12 38-14 1 1 6-4 2h-4l-6-10-12-3v-7l-7-16-6 2-2 1 1 9 3 11 5-1 2 2-1 6-4 11 3 11-1 4-6 2-1-3h-2l-3 9-2 3-5-1-33-16 3-5-2-9-3-11h-7v26l4 1-1 4-20 20-8 7-4-1-8-7v6h-9l-1-18-10-10v-3l3-1v-26l-5-1-2 6-5 10 2 5-3 2-18 3-17-12h-37l-2-5-4-22h-4l-4 3-5-2-2-4 5-6-7-8-1-2 2-20 3-1 4 1 2-4 9-9 2-3v-3l-28-1-1 4-4-2-12-18-16-1-2-3v-7l1-2 5-1-1-5-5-9 2-5 13-18 10-14 7-9h3l1 4h28l-3-5-5-5-7 1v-23l7-7 4-5 5-4 5-16 6-23 2-4h10l15 2 2 1-3-8 1-5 5-2 4 5 10-4 15 9 2 3-2 2 1 6 7 16 3 1v-34h-5l1-5 12-11 2-1 1-20 1-1h9l1 1v8l5-2z" fill="#BA6023"/>
<path transform="translate(953,567)" d="m0 0 15 1 12 3 13 7 7 6 9 13 5 12 2 11v17l-4 16-7 14-10 11-11 7-10 4-10 2h-13l-13-3-11-6-6-5v54h-32l-1-161 16-1 15 1v11l13-9 12-4z" fill="#FEFEFE"/>
<path transform="translate(649,567)" d="m0 0 16 1 12 3 14 7 10 9 6 7 6 12 3 11v24l-5 15-6 10-9 10-14 9-15 5-7 1h-15l-15-3-16-8-8-6-9-10-8-16-2-10v-17l4-16 7-13 8-9 14-9 10-4 9-2z" fill="#FEFEFE"/>
<path transform="translate(798,567)" d="m0 0 15 1 14 4 10 5 10 8 7 8 7 14 3 11v22l-4 14-6 11-10 11-14 9-15 5-7 1h-16l-14-3-12-5-10-7-10-10-6-10-5-16v-21l3-12 6-12 9-11 13-9 13-5 8-2z" fill="#FEFEFE"/>
<path transform="translate(1081,567)" d="m0 0 17 1 15 4 10 6 8 8 5 10 3 13v80h-29l-1-1v-12l-7 6-8 5-9 3-6 1h-13l-13-3-12-7-7-8-4-10-1-13 4-13 7-9 10-6 13-4 9-1h33l-2-11-4-6-7-4-4-1h-17l-12 3-11 6-3 1-11-20 1-4 15-8 13-4z" fill="#FEFEFE"/>
<path transform="translate(463,532)" d="m0 0h33l1 127 77 1v28l-33 1h-78z" fill="#FEFEFE"/>
<path transform="translate(797,594)" d="m0 0 12 1 10 5 7 8 4 10 1 5v12l-4 13-9 10-8 4-4 1h-13l-10-4-7-6-5-8-3-12v-9l2-9 5-9 7-7 9-4z" fill="#202124"/>
<path transform="translate(649,594)" d="m0 0 11 1 9 4 7 6 5 10 2 8v12l-3 10-5 8-7 6-10 4h-12l-11-4-8-7-5-10-2-8v-10l3-11 6-9 7-6 7-3z" fill="#202124"/>
<path transform="translate(949,594)" d="m0 0 12 1 8 4 8 8 5 12 1 11-2 12-4 8-7 8-8 4-4 1h-12l-11-4-9-9-4-9-1-4v-16l4-11 6-8 9-6z" fill="#202024"/>
<path transform="translate(639,221)" d="m0 0 5 2 13 11 3 2v2h-2v19h-37v-19l-2-1 6-6 2-8h4l1 3z" fill="#333538"/>
<path transform="translate(1076,638)" d="m0 0h30v13l-5 8-8 6-6 2h-15l-6-3-4-5-1-3v-7l4-6 4-3z" fill="#252324"/>
<path transform="translate(694,261)" d="m0 0 9 6 11 10-2 1 1 19h-37v-19l-2-1 7-6 1-8 4-1 1 4z" fill="#343538"/>
<path transform="translate(599,301)" d="m0 0 4 2 12 10 5 5h-2v19h-36v-19l-3 1 2-4 5-4 1-9h4l1 5z" fill="#343538"/>
<path transform="translate(1018,261)" d="m0 0 4 2 13 10 2 7v17h-36v-19l-3-1 7-6 1-9h4v5z" fill="#343538"/>
<path transform="translate(947,261)" d="m0 0 7 4 9 8 6 4-3 1v19h-36l-1-1v-17h-2v-2l14-11z" fill="#333538"/>
<path transform="translate(909,301)" d="m0 0 5 2 9 8 8 6-3 1v19h-36v-19l-3-1 10-8z" fill="#343538"/>
<path transform="translate(978,223)" d="m0 0 12 3 10 5 6 5-4 1-1 20h-34v-20l-3-1z" fill="#333438"/>
<path transform="translate(1011,301)" d="m0 0 5 2 9 8 7 5-4 9-6 9-3 3h-25v-19l-3-1 7-6 1-9h5l1 4z" fill="#343538"/>
<path transform="translate(548,424)" d="m0 0h4l1 2 3-2 6 1 16 11 2 2-1 17h-25l-11-7-1-10-2-2 7-6z" fill="#333538"/>
<path transform="translate(920,227)" d="m0 0 4 2 8 7-2 1v20h-38v-15l15-9z" fill="#333438"/>
<path transform="translate(631,263)" d="m0 0 3 2v2l4 2 8 8v2h-2v18h-26v-18l-3-1 6-6h2l1-5h3z" fill="#343538"/>
<path transform="translate(884,264)" d="m0 0 6 4 7 8 2 3h-2v18h-26v-18l-2-1 5-5 1-7h4v2z" fill="#333538"/>
<path transform="translate(663,303)" d="m0 0 8 6 8 7-3 1v20h-11v-13h-4v13h-10v-19h-3v-2l4-3 1-8h4v2z" fill="#343538"/>
<path transform="translate(596,267)" d="m0 0 5 3 10 9 3 3-4 1v14h-27v-15h-2v-2l4-3 1-9h4l1 3z" fill="#313336"/>
<path transform="translate(669,227)" d="m0 0h4l1 2 2-2 4 1 11 11 3 1v2h-2l-1 15h-26l-1-5v-11-3l3-3z" fill="#333438"/>
<path transform="translate(730,266)" d="m0 0 4 2 10 11 2 2h-2v5h-2l-1-2-1 3h4v10h-26l1-17-2-1 4-4 1-7h4 2z" fill="#343538"/>
<path transform="translate(725,303)" d="m0 0 4 2 9 8v2l5 2 1 2h-3l-1 4h-4v3h-3l-2 4h-2v-6h-4v10l-4 3h-9l-1-1v-14l1-4-3-1 8-7z" fill="#343538"/>
<path transform="translate(975,306)" d="m0 0 4 3 1-2h3l1 7 5 5h-2l1 4v14h-24l-1-4v-11-4l9-9z" fill="#333437"/>
<path transform="translate(745,423)" d="m0 0 5 5 6-2 4-2 5 1 10 8-2 4-4 3h-3l-1 3-4 2v-4h-5v7l-12 7-4-1v-17l-2-1 6-5z" fill="#343538"/>
<path transform="translate(855,269)" d="m0 0 4 1 8 7-2 1v19h-20l-8-9 3-5z" fill="#343538"/>
<path transform="translate(951,341)" d="m0 0 8 6 8 7 4 3v2h-2l-1 4h-7v-2h-2v3l-14-1-13-4v-3l5-4 1-9h5l1 3z" fill="#353639"/>
<path transform="translate(693,311)" d="m0 0h4l2 3 4 1 3 5 1 5v12h-23l-1-1v-13h-3l1-3 3-2 1-4 7-2z" fill="#323437"/>
<path transform="translate(945,234)" d="m0 0 17 5-1 18h-26l1-15-2-1 10-6z" fill="#323437"/>
<path transform="translate(951,315)" d="m0 0h5l2 6 2 2h-2v14h-24l-1-15 7-6h10z" fill="#323336"/>
<path transform="translate(980,275)" d="m0 0 6 1 11 4-1 17h-24l-1-16z" fill="#323336"/>
<path transform="translate(600,236)" d="m0 0 8 1 9 4-2 1v15h-23v-16z" fill="#313336"/>
<path transform="translate(652,273)" d="m0 0h4v2l6-2 9 8-1 2v14h-20v-14l-4-2 5-4z" fill="#323337"/>
<path transform="translate(1117,343)" d="m0 0 5 2 1 5-2 10-3 3h-1l-1 12-1 2h-12l2-23 10-10z" fill="#333538"/>
<path transform="translate(596,434)" d="m0 0 4 2 10 10-1 9h-24l1-14-2-1z" fill="#323437"/>
<path transform="translate(631,316)" d="m0 0 12 3 5 4h-2v13l-1 1h-21l-1-14z" fill="#333437"/>
<path transform="translate(832,421)" d="m0 0 5 2 9 8 6 5-1 2v12l-5-2-1-2 1-2-3 1-11-7-9-7 2-4z" fill="#343538"/>
<path transform="translate(1093,390)" d="m0 0 10 3 3 1-2 6-2 3h-7v2h5l-4 2-1 2h2l-2 5-2 2h-11v-14l6-8z" fill="#323336"/>
<path transform="translate(911,277)" d="m0 0h5l8 7-1 13h-20v-14l-2-1 5-4z" fill="#323336"/>
<path transform="translate(633,343)" d="m0 0 7 6 9 8-4 1v6l-8-1h-7l-11-3v-2l-2-1 8-8z" fill="#353639"/>
<path transform="translate(484,343)" d="m0 0h4v5l5-2 3 2-2 29h-6l-3-9h2v-2h-2v-4l-3-1-1-7 3-1z" fill="#343538"/>
<path transform="translate(660,462)" d="m0 0 5 2 12 10 2 1v2l-21 3h-9v-4l-2-1 11-10z" fill="#353639"/>
<path transform="translate(824,399)" d="m0 0 8 1 3 3v13h-29l-1-6 7 3 5-5z" fill="#343538"/>
<path transform="translate(569,269)" d="m0 0 6 4 4 5h-2v19h-12l-1-1 1-15z" fill="#333437"/>
<path transform="translate(609,465)" d="m0 0h2l1 6h22l10 5-1 4-21-1-16-3-3-2 5-6z" fill="#353639"/>
<path transform="translate(871,308)" d="m0 0 5 1 2 1v-2h4l2 7 4 4h-2l-1 13-5-3-1-2 1-3h-2l-1 3v-3l-5-1-8-7 1-2 5-5z" fill="#343538"/>
<path transform="translate(700,239)" d="m0 0 5 1 11 8v9h-19v-13h-2v-2z" fill="#323437"/>
<path transform="translate(676,442)" d="m0 0 7 1 4 3v5l4-1 2-2 12 6v1h-33v-9z" fill="#343538"/>
<path transform="translate(860,440)" d="m0 0 4 1 3 2v2l3 1 2 3 7 1 3-3h2v8h-26l-1-13z" fill="#343538"/>
<path transform="translate(1009,237)" d="m0 0 6 5-1 4 5-1 7 10v2h-18v-19z" fill="#353639"/>
<path transform="translate(1e3 443)" d="m0 0h2v3h2v-2l4 2v8h6v-6h6l5-2v9h-30v-6z" fill="#353639"/>
<path transform="translate(695,341)" d="m0 0 7 4v4l-18 8-8 2 2-4 4-3 1-9h5l1 3z" fill="#353639"/>
<path transform="translate(945,407)" d="m0 0h9l1 20-1 2h-9z" fill="#1C1F24"/>
<path transform="translate(752,280)" d="m0 0 8 6 3 3v2l5 3 1 3h-19l-1-13-3-2z" fill="#323337"/>
<path transform="translate(642,153)" d="m0 0h9l1 1v18l-1 1h-8l-1-2z" fill="#1C1F24"/>
<path transform="translate(786,396)" d="m0 0 4 2 7 5-1 13h-16l2-6 3-1 6 1v-3l-7 1v-3l7 1v-2h-8z" fill="#353639"/>
<path transform="translate(893,433)" d="m0 0h2l1 9 2 1 1 3 10 8-1 2-18-1 1-17h-2l2-4z" fill="#343538"/>
<path transform="translate(1052,434)" d="m0 0h9l6 2-1 7-10 8-3 1v-13z" fill="#333437"/>
<path transform="translate(503,282)" d="m0 0h17v10h-17l-1-2v-7z" fill="#1C1F24"/>
<path transform="translate(1039,374)" d="m0 0h3l8 13-3 5-5 2-8-14 2-4z" fill="#1C1F24"/>
<path transform="translate(1083,283)" d="m0 0h17v10h-17z" fill="#1C1F24"/>
<path transform="translate(1041,190)" d="m0 0 6 1 2 5-8 12-2 1-6-5 2-5z" fill="#1C1F24"/>
<path transform="translate(560,187)" d="m0 0 4 2 5 9v5l-4 3-4-1-6-11v-4z" fill="#1C1F24"/>
<path transform="translate(557,370)" d="m0 0 4 1 3 3-1 5-7 9-5-1-2-1 1-7z" fill="#1C1F24"/>
<path transform="translate(643,407)" d="m0 0h8l1 1v17h-9z" fill="#1C1F24"/>
<path transform="translate(829,348)" d="m0 0 5 1 2 5-7 11-4 1-4-3 1-6z" fill="#1C1F24"/>
<path transform="translate(689,397)" d="m0 0h4l5 14-1 2-5 2-4-1-4-12 1-3z" fill="#1C1F24"/>
<path transform="translate(770,210)" d="m0 0 5 2 2 1-1 5-7 10-5-2-2-4 6-10z" fill="#1C1F24"/>
<path transform="translate(661,352)" d="m0 0 4 2v2h2v2l3 1v2l-8 2h-12l-2-1v-2l4-2 1-5h4v2z" fill="#353639"/>
<path transform="translate(842,213)" d="m0 0h2l6 13-1 4-3 2-4-1-5-11 1-4z" fill="#1C1F24"/>
<path transform="translate(890,178)" d="m0 0h2l4 10-1 4-6 3-3-1-3-9 1-4z" fill="#1C1F24"/>
<path transform="translate(904,172)" d="m0 0 5 1 4 11v3l-4 2h-4l-5-14z" fill="#1C1F24"/>
<path transform="translate(757,357)" d="m0 0 4 4 4 10-5 4-4-2-5-11 4-4z" fill="#1C1F24"/>
<path transform="translate(718,175)" d="m0 0 7 1 1 2-5 13-5 1-3-2 1-5z" fill="#1C1F24"/>
<path transform="translate(917,465)" d="m0 0 4 1 2 7 2 3-4 1-15-4-2-2 7-5 4 1z" fill="#353639"/>
<path transform="translate(952,161)" d="m0 0h7v18h-7z" fill="#1C1F24"/>
<path transform="translate(875,384)" d="m0 0 5 2 2 3-5 11-4-1-4-3 2-6z" fill="#1C1F24"/>
<path transform="translate(986,463)" d="m0 0 6 4 9 7-3 2-8 2h-4z" fill="#353639"/>
<path transform="translate(1535,761)" d="m0 0h4v26h-4z" fill="#DBAC8C"/>
<path transform="translate(1031,459)" d="m0 0 4 1 2 2-14 7-5 1 1-10h5v4z" fill="#353639"/>
<path transform="translate(1046,445)" d="m0 0h1l1 6 5 1-3 3h-14v-5z" fill="#353639"/>
<path transform="translate(732,443)" d="m0 0h1l1 11-1 1h-14l3-5 2-1 4 1 1-5z" fill="#353639"/>
<path transform="translate(884,247)" d="m0 0h2v10h-13l4-5h3v-2z" fill="#353639"/>
<path transform="translate(1544,753)" d="m0 0h25v3h-25z" fill="#FEFEFE"/>
<path transform="translate(1505,753)" d="m0 0h25v3h-25z" fill="#FEFEFE"/>
<path transform="translate(816,237)" d="m0 0 3 1 2 3v3l-5 5-3 2-2-8z" fill="#353639"/>
<path transform="translate(908,242)" d="m0 0h6v12h-6z" fill="#1C1F24"/>
<path transform="translate(637,242)" d="m0 0h6v11l-1 1h-5z" fill="#1C1F24"/>
<path transform="translate(596,267)" d="m0 0m-10 1h4l1 3 3-1-2 4-8 9-3-1v-2l4-3z" fill="#323437"/>
<path transform="translate(585,245)" d="m0 0h1v12h-10l3-5z" fill="#353639"/>
<path transform="translate(981,242)" d="m0 0h5v13h-5l-1-8z" fill="#1C1F24"/>
<path transform="translate(494,390)" d="m0 0 4 2 7 8v8l-4-4v-3l-3-1z" fill="#353639"/>
<path transform="translate(1017,282)" d="m0 0h5v12h-6z" fill="#1C1F24"/>
<path transform="translate(512,403)" d="m0 0 3 1 2 12h-6v-11z" fill="#353639"/>
<path transform="translate(1009,322)" d="m0 0h5v12h-5z" fill="#1C1F24"/>
<path transform="translate(907,322)" d="m0 0h5v12h-5z" fill="#1C1F24"/>
<path transform="translate(945,282)" d="m0 0h5v12h-5z" fill="#1C1F24"/>
<path transform="translate(692,282)" d="m0 0h5v12h-5z" fill="#1C1F24"/>
<path transform="translate(558,441)" d="m0 0h5v11h-5z" fill="#1C1F24"/>
<path transform="translate(598,323)" d="m0 0h4l1 11h-6z" fill="#1C1F24"/>
<path transform="translate(845,282)" d="m0 0 5 1-1 11h-5z" fill="#1C1F24"/>
<path transform="translate(732,284)" d="m0 0h5v10h-5z" fill="#1C1F24"/>
<path transform="translate(678,244)" d="m0 0h5v10h-5z" fill="#1C1F24"/>
<path transform="translate(973,325)" d="m0 0h4v10h-4z" fill="#1C1F24"/>
<path transform="translate(884,284)" d="m0 0h4v10h-4z" fill="#1C1F24"/>
<path transform="translate(805,241)" d="m0 0h1v10l1 4-6-5 2-6z" fill="#353639"/>
<path transform="translate(477,327)" d="m0 0 4 4 3 4v2h-6l-1-1z" fill="#353639"/>
<path transform="translate(629,284)" d="m0 0h4v10l-4-1z" fill="#1C1F24"/>
<path transform="translate(522,429)" d="m0 0h4 3l2 6 5 6-4-2-10-9z" fill="#353639"/>
<path transform="translate(825,405)" d="m0 0h4l-1 9h-4v-8z" fill="#1C1F24"/>
<path transform="translate(1066,356)" d="m0 0h3l-1 4-5 5-2-2z" fill="#1C1F24"/>
<path transform="translate(532,222)" d="m0 0 2 1-1 4-5 5-1-3z" fill="#1C1F24"/>
<path transform="translate(577,399)" d="m0 0 5 1 3 2-1 3-8-4z" fill="#1C1F24"/>
<path transform="translate(1071,360)" d="m0 0 3 1-5 7h-3l2-4z" fill="#1C1F24"/>
<path transform="translate(587,403)" d="m0 0 6 3 1 3-6-1-2-3z" fill="#1C1F24"/>
<path transform="translate(536,226)" d="m0 0 2 1-2 5-4 2v-3z" fill="#1C1F24"/>
</svg>
